<svg id="Group_870" data-name="Group 870" xmlns="http://www.w3.org/2000/svg" viewBox="0 0 297.952 40">
  <defs>
    <style>
      .cls-1 {
        fill: #0a70b9;
      }

      .cls-2 {
        fill: #9edae5;
      }

      .cls-3 {
        fill: #d11e49;
      }

      .cls-4 {
        fill: #73808a;
      }

      .cls-5 {
        fill: #243c7a;
      }
    </style>
  </defs>
  <path id="Path_9796" data-name="Path 9796" class="cls-1" d="M20,45.085V20.773A3.071,3.071,0,0,1,23.073,17.7h0a3.071,3.071,0,0,1,3.073,3.073V45.085a3.071,3.071,0,0,1-3.073,3.073h0A3.107,3.107,0,0,1,20,45.085Z" transform="translate(-9.218 -8.158)"/>
  <path id="Path_9797" data-name="Path 9797" class="cls-2" d="M46.146,11.973V36.285a3.071,3.071,0,0,1-3.073,3.073h0A3.071,3.071,0,0,1,40,36.285V11.973A3.071,3.071,0,0,1,43.073,8.9h0A3.107,3.107,0,0,1,46.146,11.973Z" transform="translate(-18.437 -4.102)"/>
  <path id="Path_9798" data-name="Path 9798" class="cls-3" d="M26.246,3.073h0a3.071,3.071,0,0,1-3.073,3.073h0A3.071,3.071,0,0,1,20.1,3.073h0A3.071,3.071,0,0,1,23.173,0h0A3.038,3.038,0,0,1,26.246,3.073Z" transform="translate(-9.264 0)"/>
  <path id="Path_9799" data-name="Path 9799" class="cls-4" d="M0,21.622v-9.65A3.071,3.071,0,0,1,3.073,8.9h0a3.071,3.071,0,0,1,3.073,3.073v9.65A3.071,3.071,0,0,1,3.073,24.7h0A3.071,3.071,0,0,1,0,21.622Z" transform="translate(0 -4.102)"/>
  <path id="Path_9800" data-name="Path 9800" class="cls-3" d="M0,52.241V46.473A3.071,3.071,0,0,1,3.073,43.4h0a3.071,3.071,0,0,1,3.073,3.073v5.714A3.071,3.071,0,0,1,3.073,55.26h0A3.026,3.026,0,0,1,0,52.241Z" transform="translate(0 -20.004)"/>
  <g id="Group_869" data-name="Group 869" transform="translate(45.822 4.259)">
    <rect id="Rectangle_557" data-name="Rectangle 557" class="cls-5" width="6.739" height="30.566" transform="translate(0 0.485)"/>
    <path id="Path_9801" data-name="Path 9801" class="cls-5" d="M151.3,27.237,137.875,8.8H132.7V39.312h6.739V20.768l13.477,18.6h5.175V8.8H151.3Z" transform="translate(-106.986 -8.315)"/>
    <path id="Path_9802" data-name="Path 9802" class="cls-5" d="M215.2,39.366h6.739V27.021h6.792V21.684h-6.792V14.191H235.47V8.8H215.2Z" transform="translate(-145.011 -8.315)"/>
    <path id="Path_9803" data-name="Path 9803" class="cls-5" d="M294.9,7.9a15.742,15.742,0,1,0,15.849,15.741A15.829,15.829,0,0,0,294.9,7.9Zm0,25.337a9.224,9.224,0,0,1-9.218-9.542,9.2,9.2,0,1,1,18.383,0A9.18,9.18,0,0,1,294.9,33.237Z" transform="translate(-174.418 -7.9)"/>
    <path id="Path_9804" data-name="Path 9804" class="cls-5" d="M387.979,27.738h0V32.1a13.21,13.21,0,0,1-5.606,1.132,9.1,9.1,0,0,1-9.434-9.488c0-4.42,2.534-9.65,9.973-9.65a12.72,12.72,0,0,1,7.439,2.749l3.342-5.013a17.075,17.075,0,0,0-11-3.935c-10.189,0-16.5,7.224-16.5,15.741,0,8.625,6.846,15.741,16.226,15.741a17.249,17.249,0,0,0,11.914-4.69v-12.4h-6.307v5.445Z" transform="translate(-214.61 -7.9)"/>
    <rect id="Rectangle_558" data-name="Rectangle 558" class="cls-5" width="6.739" height="30.566" transform="translate(197.79 0.485)"/>
    <path id="Path_9805" data-name="Path 9805" class="cls-5" d="M526.843,13.5,522.1,8.7l-10.35,10.4L501.4,8.7l-4.8,4.8,10.35,10.35L496.6,34.2l4.8,4.8,10.35-10.35L522.1,39l4.744-4.8-10.35-10.35Z" transform="translate(-274.713 -8.269)"/>
  </g>
</svg>
